<mxfile host="app.diagrams.net" modified="2024-02-29T07:57:04.385Z" agent="Mozilla/5.0 (X11; Ubuntu; Linux x86_64; rv:123.0) Gecko/20100101 Firefox/123.0" version="23.1.5" etag="NmHpB1zIn9gMgN2_Y95P" type="github">
  <diagram name="Page-1" id="KY0k7iO2Uw9lCAyyPnH0">
    <mxGraphModel>
      <root>
        <mxCell id="0" />
        <mxCell id="1" parent="0" />
      </root>
    </mxGraphModel>
  </diagram>
</mxfile>
